name analog
datacolumns 19
datarows 18
range 0.352 0.3605
endheader
time	ground_force_vx	ground_force_vy	ground_force_vz	ground_force_px	ground_force_py	ground_force_pz	l_ground_force_vx	l_ground_force_vy	l_ground_force_vz	l_ground_force_px	l_ground_force_py	l_ground_force_pz	ground_torque_x	ground_torque_y	ground_torque_z	l_ground_torque_x	l_ground_torque_y	l_ground_torque_z
0.352	-0.0	-0.0	-0.0	-5.775870323181152	17.001794815063477	-364.0409240722656	-1.907082438468933	-17.9952449798584	-364.1651611328125	-0.0	-0.0	-0.0	-0.0	-0.0	-0.0	102211.3125	-10891.162109375	-7021.5390625
0.3525	-0.0	-0.0	-0.0	-6.19971227645874	17.04598045349121	-363.1531372070313	-2.351112365722656	-17.796545028686523	-364.5099182128906	-0.0	-0.0	-0.0	-0.0	-0.0	-0.0	102101.1171875	-10871.9072265625	-7021.83056640625
0.353	-0.0	-0.0	-0.0	-6.625615119934082	17.182113647460938	-364.9182739257813	-2.1503517627716064	-18.06072807312012	-364.162353515625	-0.0	-0.0	-0.0	-0.0	-0.0	-0.0	102776.734375	-11006.53125	-6992.1162109375
0.3535	-0.0	-0.0	-0.0	-6.44518518447876	17.069019317626953	-364.2113952636719	-2.1957950592041016	-17.92849349975586	-364.2452392578125	-0.0	-0.0	-0.0	-0.0	-0.0	-0.0	102372.34375	-11037.861328125	-7058.80859375
0.354	-0.0	-0.0	-0.0	-6.644305229187012	16.399993896484375	-365.2751159667969	-2.061317205429077	-18.106908798217773	-364.9459838867188	-0.0	-0.0	-0.0	-0.0	-0.0	-0.0	102482.8515625	-11263.5439453125	-7155.42236328125
0.3545	-0.0	-0.0	-0.0	-6.489009380340576	16.5096492767334	-366.43255615234375	-2.1947507858276367	-17.796260833740234	-365.8203125	-0.0	-0.0	-0.0	-0.0	-0.0	-0.0	102680.0078125	-11109.8837890625	-7013.7421875
0.355	-0.0	-0.0	-0.0	-6.781511306762695	16.174901962280273	-368.2918701171875	-2.351448774337769	-17.79620933532715	-366.34613037109375	-0.0	-0.0	-0.0	-0.0	-0.0	-0.0	102943.5625	-11160.6025390625	-7043.4736328125
0.3555	-0.0	-0.0	-0.0	-6.759780883789063	16.79691505432129	-368.8131103515625	-2.01713490486145	-17.70781135559082	-366.5178527832031	-0.0	-0.0	-0.0	-0.0	-0.0	-0.0	102807.75	-11099.798828125	-7162.72802734375
0.356	-0.0	-0.0	-0.0	-6.756328582763672	16.796525955200195	-369.0730590820313	-1.88165020942688	-17.86267852783203	-367.4911193847656	-0.0	-0.0	-0.0	-0.0	-0.0	-0.0	103144.8515625	-11222.646484375	-7043.02685546875
0.3565	-0.0	-0.0	-0.0	-6.958419799804688	17.180376052856445	-369.8813171386719	-1.83949077129364	-17.599348068237305	-366.5169677734375	-0.0	-0.0	-0.0	-0.0	-0.0	-0.0	102998.6640625	-11381.8408203125	-7064.6982421875
0.357	-0.0	-0.0	-0.0	-7.293480396270752	17.095439910888672	-369.7794189453125	-1.9081790447235107	-17.46070098876953	-366.6091918945313	-0.0	-0.0	-0.0	-0.0	-0.0	-0.0	103190.3984375	-11486.572265625	-7021.03759765625
0.3575	-0.0	-0.0	-0.0	-7.250033378601074	16.987173080444336	-370.0376586914063	-1.8214943408966064	-17.30522918701172	-367.3228454589844	-0.0	-0.0	-0.0	-0.0	-0.0	-0.0	103063.578125	-11641.8662109375	-7057.828125
0.358	-0.0	-0.0	-0.0	-6.82340669631958	16.47461700439453	-369.9512634277344	-1.709260106086731	-17.776309967041016	-368.627197265625	-0.0	-0.0	-0.0	-0.0	-0.0	-0.0	103273.859375	-11591.3544921875	-7036.81201171875
0.3585	-0.0	-0.0	-0.0	-7.341908931732178	16.720630645751953	-369.0730590820313	-1.373913288116455	-17.619077682495117	-368.9768371582031	-0.0	-0.0	-0.0	-0.0	-0.0	-0.0	103445.6796875	-11733.041015625	-6933.11328125
0.359	-0.0	-0.0	-0.0	-7.29625654220581	16.45378303527832	-370.8285217285156	-1.41937255859375	-17.5998592376709	-367.0340270996094	-0.0	-0.0	-0.0	-0.0	-0.0	-0.0	103277.171875	-11605.5478515625	-7007.77294921875
0.3595	-0.0	-0.0	-0.0	-6.758394241333008	16.05947494506836	-370.4747009277344	-0.9973671436309814	-17.409395217895508	-368.07080078125	-0.0	-0.0	-0.0	-0.0	-0.0	-0.0	103485.0078125	-11783.1015625	-6888.0302734375
0.36	-0.0	-0.0	-0.0	-6.9368414878845215	15.991669654846191	-370.3034362792969	-1.153240203857422	-17.744184494018555	-367.9005737304688	-0.0	-0.0	-0.0	-0.0	-0.0	-0.0	103487.3828125	-11983.7412109375	-6873.8583984375
0.3605	-0.0	-0.0	-0.0	-6.733867168426514	15.85301113128662	-370.9363098144531	-1.021552801132202	-17.522815704345703	-366.9474792480469	-0.0	-0.0	-0.0	-0.0	-0.0	-0.0	103710.6796875	-11990.8427734375	-6782.94921875
